%TF.GenerationSoftware,KiCad,Pcbnew,(5.1.7)-1*%
%TF.CreationDate,2021-07-14T13:30:58-05:00*%
%TF.ProjectId,PwmRgbLaserDriver Rev. B,50776d52-6762-44c6-9173-657244726976,rev?*%
%TF.SameCoordinates,Original*%
%TF.FileFunction,Legend,Bot*%
%TF.FilePolarity,Positive*%
%FSLAX46Y46*%
G04 Gerber Fmt 4.6, Leading zero omitted, Abs format (unit mm)*
G04 Created by KiCad (PCBNEW (5.1.7)-1) date 2021-07-14 13:30:58*
%MOMM*%
%LPD*%
G01*
G04 APERTURE LIST*
%ADD10C,0.150000*%
%ADD11C,0.120000*%
%ADD12C,0.200000*%
G04 APERTURE END LIST*
D10*
X231979190Y-48406095D02*
X231979190Y-49206095D01*
X232283952Y-49206095D01*
X232360142Y-49168000D01*
X232398238Y-49129904D01*
X232436333Y-49053714D01*
X232436333Y-48939428D01*
X232398238Y-48863238D01*
X232360142Y-48825142D01*
X232283952Y-48787047D01*
X231979190Y-48787047D01*
X232703000Y-48939428D02*
X232855380Y-48406095D01*
X233007761Y-48787047D01*
X233160142Y-48406095D01*
X233312523Y-48939428D01*
X233617285Y-48406095D02*
X233617285Y-48939428D01*
X233617285Y-48863238D02*
X233655380Y-48901333D01*
X233731571Y-48939428D01*
X233845857Y-48939428D01*
X233922047Y-48901333D01*
X233960142Y-48825142D01*
X233960142Y-48406095D01*
X233960142Y-48825142D02*
X233998238Y-48901333D01*
X234074428Y-48939428D01*
X234188714Y-48939428D01*
X234264904Y-48901333D01*
X234303000Y-48825142D01*
X234303000Y-48406095D01*
X235141095Y-48406095D02*
X234874428Y-48787047D01*
X234683952Y-48406095D02*
X234683952Y-49206095D01*
X234988714Y-49206095D01*
X235064904Y-49168000D01*
X235103000Y-49129904D01*
X235141095Y-49053714D01*
X235141095Y-48939428D01*
X235103000Y-48863238D01*
X235064904Y-48825142D01*
X234988714Y-48787047D01*
X234683952Y-48787047D01*
X235826809Y-48939428D02*
X235826809Y-48291809D01*
X235788714Y-48215619D01*
X235750619Y-48177523D01*
X235674428Y-48139428D01*
X235560142Y-48139428D01*
X235483952Y-48177523D01*
X235826809Y-48444190D02*
X235750619Y-48406095D01*
X235598238Y-48406095D01*
X235522047Y-48444190D01*
X235483952Y-48482285D01*
X235445857Y-48558476D01*
X235445857Y-48787047D01*
X235483952Y-48863238D01*
X235522047Y-48901333D01*
X235598238Y-48939428D01*
X235750619Y-48939428D01*
X235826809Y-48901333D01*
X236207761Y-48406095D02*
X236207761Y-49206095D01*
X236207761Y-48901333D02*
X236283952Y-48939428D01*
X236436333Y-48939428D01*
X236512523Y-48901333D01*
X236550619Y-48863238D01*
X236588714Y-48787047D01*
X236588714Y-48558476D01*
X236550619Y-48482285D01*
X236512523Y-48444190D01*
X236436333Y-48406095D01*
X236283952Y-48406095D01*
X236207761Y-48444190D01*
X237312523Y-48406095D02*
X236931571Y-48406095D01*
X236931571Y-49206095D01*
X237922047Y-48406095D02*
X237922047Y-48825142D01*
X237883952Y-48901333D01*
X237807761Y-48939428D01*
X237655380Y-48939428D01*
X237579190Y-48901333D01*
X237922047Y-48444190D02*
X237845857Y-48406095D01*
X237655380Y-48406095D01*
X237579190Y-48444190D01*
X237541095Y-48520380D01*
X237541095Y-48596571D01*
X237579190Y-48672761D01*
X237655380Y-48710857D01*
X237845857Y-48710857D01*
X237922047Y-48748952D01*
X238264904Y-48444190D02*
X238341095Y-48406095D01*
X238493476Y-48406095D01*
X238569666Y-48444190D01*
X238607761Y-48520380D01*
X238607761Y-48558476D01*
X238569666Y-48634666D01*
X238493476Y-48672761D01*
X238379190Y-48672761D01*
X238303000Y-48710857D01*
X238264904Y-48787047D01*
X238264904Y-48825142D01*
X238303000Y-48901333D01*
X238379190Y-48939428D01*
X238493476Y-48939428D01*
X238569666Y-48901333D01*
X239255380Y-48444190D02*
X239179190Y-48406095D01*
X239026809Y-48406095D01*
X238950619Y-48444190D01*
X238912523Y-48520380D01*
X238912523Y-48825142D01*
X238950619Y-48901333D01*
X239026809Y-48939428D01*
X239179190Y-48939428D01*
X239255380Y-48901333D01*
X239293476Y-48825142D01*
X239293476Y-48748952D01*
X238912523Y-48672761D01*
X239636333Y-48406095D02*
X239636333Y-48939428D01*
X239636333Y-48787047D02*
X239674428Y-48863238D01*
X239712523Y-48901333D01*
X239788714Y-48939428D01*
X239864904Y-48939428D01*
X240131571Y-48406095D02*
X240131571Y-49206095D01*
X240322047Y-49206095D01*
X240436333Y-49168000D01*
X240512523Y-49091809D01*
X240550619Y-49015619D01*
X240588714Y-48863238D01*
X240588714Y-48748952D01*
X240550619Y-48596571D01*
X240512523Y-48520380D01*
X240436333Y-48444190D01*
X240322047Y-48406095D01*
X240131571Y-48406095D01*
X240931571Y-48406095D02*
X240931571Y-48939428D01*
X240931571Y-48787047D02*
X240969666Y-48863238D01*
X241007761Y-48901333D01*
X241083952Y-48939428D01*
X241160142Y-48939428D01*
X241426809Y-48406095D02*
X241426809Y-48939428D01*
X241426809Y-49206095D02*
X241388714Y-49168000D01*
X241426809Y-49129904D01*
X241464904Y-49168000D01*
X241426809Y-49206095D01*
X241426809Y-49129904D01*
X241731571Y-48939428D02*
X241922047Y-48406095D01*
X242112523Y-48939428D01*
X242722047Y-48444190D02*
X242645857Y-48406095D01*
X242493476Y-48406095D01*
X242417285Y-48444190D01*
X242379190Y-48520380D01*
X242379190Y-48825142D01*
X242417285Y-48901333D01*
X242493476Y-48939428D01*
X242645857Y-48939428D01*
X242722047Y-48901333D01*
X242760142Y-48825142D01*
X242760142Y-48748952D01*
X242379190Y-48672761D01*
X243103000Y-48406095D02*
X243103000Y-48939428D01*
X243103000Y-48787047D02*
X243141095Y-48863238D01*
X243179190Y-48901333D01*
X243255380Y-48939428D01*
X243331571Y-48939428D01*
X244664904Y-48406095D02*
X244398238Y-48787047D01*
X244207761Y-48406095D02*
X244207761Y-49206095D01*
X244512523Y-49206095D01*
X244588714Y-49168000D01*
X244626809Y-49129904D01*
X244664904Y-49053714D01*
X244664904Y-48939428D01*
X244626809Y-48863238D01*
X244588714Y-48825142D01*
X244512523Y-48787047D01*
X244207761Y-48787047D01*
X245007761Y-48825142D02*
X245274428Y-48825142D01*
X245388714Y-48406095D02*
X245007761Y-48406095D01*
X245007761Y-49206095D01*
X245388714Y-49206095D01*
X245617285Y-49206095D02*
X245883952Y-48406095D01*
X246150619Y-49206095D01*
X246417285Y-48482285D02*
X246455380Y-48444190D01*
X246417285Y-48406095D01*
X246379190Y-48444190D01*
X246417285Y-48482285D01*
X246417285Y-48406095D01*
X247674428Y-48825142D02*
X247788714Y-48787047D01*
X247826809Y-48748952D01*
X247864904Y-48672761D01*
X247864904Y-48558476D01*
X247826809Y-48482285D01*
X247788714Y-48444190D01*
X247712523Y-48406095D01*
X247407761Y-48406095D01*
X247407761Y-49206095D01*
X247674428Y-49206095D01*
X247750619Y-49168000D01*
X247788714Y-49129904D01*
X247826809Y-49053714D01*
X247826809Y-48977523D01*
X247788714Y-48901333D01*
X247750619Y-48863238D01*
X247674428Y-48825142D01*
X247407761Y-48825142D01*
X267290428Y-36593428D02*
X267633285Y-36593428D01*
X267461857Y-36593428D02*
X267461857Y-35993428D01*
X267519000Y-36079142D01*
X267576142Y-36136285D01*
X267633285Y-36164857D01*
X266747571Y-35993428D02*
X267033285Y-35993428D01*
X267061857Y-36279142D01*
X267033285Y-36250571D01*
X266976142Y-36222000D01*
X266833285Y-36222000D01*
X266776142Y-36250571D01*
X266747571Y-36279142D01*
X266719000Y-36336285D01*
X266719000Y-36479142D01*
X266747571Y-36536285D01*
X266776142Y-36564857D01*
X266833285Y-36593428D01*
X266976142Y-36593428D01*
X267033285Y-36564857D01*
X267061857Y-36536285D01*
X266547571Y-35993428D02*
X266347571Y-36593428D01*
X266147571Y-35993428D01*
X265947571Y-36593428D02*
X265947571Y-35993428D01*
X265804714Y-35993428D01*
X265719000Y-36022000D01*
X265661857Y-36079142D01*
X265633285Y-36136285D01*
X265604714Y-36250571D01*
X265604714Y-36336285D01*
X265633285Y-36450571D01*
X265661857Y-36507714D01*
X265719000Y-36564857D01*
X265804714Y-36593428D01*
X265947571Y-36593428D01*
X265004714Y-36536285D02*
X265033285Y-36564857D01*
X265119000Y-36593428D01*
X265176142Y-36593428D01*
X265261857Y-36564857D01*
X265319000Y-36507714D01*
X265347571Y-36450571D01*
X265376142Y-36336285D01*
X265376142Y-36250571D01*
X265347571Y-36136285D01*
X265319000Y-36079142D01*
X265261857Y-36022000D01*
X265176142Y-35993428D01*
X265119000Y-35993428D01*
X265033285Y-36022000D01*
X265004714Y-36050571D01*
X266489238Y-46538000D02*
X266551142Y-46507047D01*
X266644000Y-46507047D01*
X266736857Y-46538000D01*
X266798761Y-46599904D01*
X266829714Y-46661809D01*
X266860666Y-46785619D01*
X266860666Y-46878476D01*
X266829714Y-47002285D01*
X266798761Y-47064190D01*
X266736857Y-47126095D01*
X266644000Y-47157047D01*
X266582095Y-47157047D01*
X266489238Y-47126095D01*
X266458285Y-47095142D01*
X266458285Y-46878476D01*
X266582095Y-46878476D01*
X266055904Y-46507047D02*
X265932095Y-46507047D01*
X265870190Y-46538000D01*
X265808285Y-46599904D01*
X265777333Y-46723714D01*
X265777333Y-46940380D01*
X265808285Y-47064190D01*
X265870190Y-47126095D01*
X265932095Y-47157047D01*
X266055904Y-47157047D01*
X266117809Y-47126095D01*
X266179714Y-47064190D01*
X266210666Y-46940380D01*
X266210666Y-46723714D01*
X266179714Y-46599904D01*
X266117809Y-46538000D01*
X266055904Y-46507047D01*
X266486047Y-51642571D02*
X266393190Y-51673523D01*
X266362238Y-51704476D01*
X266331285Y-51766380D01*
X266331285Y-51859238D01*
X266362238Y-51921142D01*
X266393190Y-51952095D01*
X266455095Y-51983047D01*
X266702714Y-51983047D01*
X266702714Y-51333047D01*
X266486047Y-51333047D01*
X266424142Y-51364000D01*
X266393190Y-51394952D01*
X266362238Y-51456857D01*
X266362238Y-51518761D01*
X266393190Y-51580666D01*
X266424142Y-51611619D01*
X266486047Y-51642571D01*
X266702714Y-51642571D01*
X265928904Y-51333047D02*
X265805095Y-51333047D01*
X265743190Y-51364000D01*
X265681285Y-51425904D01*
X265650333Y-51549714D01*
X265650333Y-51766380D01*
X265681285Y-51890190D01*
X265743190Y-51952095D01*
X265805095Y-51983047D01*
X265928904Y-51983047D01*
X265990809Y-51952095D01*
X266052714Y-51890190D01*
X266083666Y-51766380D01*
X266083666Y-51549714D01*
X266052714Y-51425904D01*
X265990809Y-51364000D01*
X265928904Y-51333047D01*
X266458285Y-42585047D02*
X266674952Y-42275523D01*
X266829714Y-42585047D02*
X266829714Y-41935047D01*
X266582095Y-41935047D01*
X266520190Y-41966000D01*
X266489238Y-41996952D01*
X266458285Y-42058857D01*
X266458285Y-42151714D01*
X266489238Y-42213619D01*
X266520190Y-42244571D01*
X266582095Y-42275523D01*
X266829714Y-42275523D01*
X266055904Y-41935047D02*
X265932095Y-41935047D01*
X265870190Y-41966000D01*
X265808285Y-42027904D01*
X265777333Y-42151714D01*
X265777333Y-42368380D01*
X265808285Y-42492190D01*
X265870190Y-42554095D01*
X265932095Y-42585047D01*
X266055904Y-42585047D01*
X266117809Y-42554095D01*
X266179714Y-42492190D01*
X266210666Y-42368380D01*
X266210666Y-42151714D01*
X266179714Y-42027904D01*
X266117809Y-41966000D01*
X266055904Y-41935047D01*
X208360571Y-47303190D02*
X208391523Y-47396047D01*
X208422476Y-47427000D01*
X208484380Y-47457952D01*
X208577238Y-47457952D01*
X208639142Y-47427000D01*
X208670095Y-47396047D01*
X208701047Y-47334142D01*
X208701047Y-47086523D01*
X208051047Y-47086523D01*
X208051047Y-47303190D01*
X208082000Y-47365095D01*
X208112952Y-47396047D01*
X208174857Y-47427000D01*
X208236761Y-47427000D01*
X208298666Y-47396047D01*
X208329619Y-47365095D01*
X208360571Y-47303190D01*
X208360571Y-47086523D01*
X208701047Y-47736523D02*
X208051047Y-47736523D01*
X208701047Y-48046047D02*
X208051047Y-48046047D01*
X208701047Y-48417476D01*
X208051047Y-48417476D01*
X208082000Y-39426000D02*
X208051047Y-39364095D01*
X208051047Y-39271238D01*
X208082000Y-39178380D01*
X208143904Y-39116476D01*
X208205809Y-39085523D01*
X208329619Y-39054571D01*
X208422476Y-39054571D01*
X208546285Y-39085523D01*
X208608190Y-39116476D01*
X208670095Y-39178380D01*
X208701047Y-39271238D01*
X208701047Y-39333142D01*
X208670095Y-39426000D01*
X208639142Y-39456952D01*
X208422476Y-39456952D01*
X208422476Y-39333142D01*
X208701047Y-39735523D02*
X208051047Y-39735523D01*
X208701047Y-40045047D02*
X208051047Y-40045047D01*
X208701047Y-40416476D01*
X208051047Y-40416476D01*
X208447047Y-30566952D02*
X208137523Y-30350285D01*
X208447047Y-30195523D02*
X207797047Y-30195523D01*
X207797047Y-30443142D01*
X207828000Y-30505047D01*
X207858952Y-30536000D01*
X207920857Y-30566952D01*
X208013714Y-30566952D01*
X208075619Y-30536000D01*
X208106571Y-30505047D01*
X208137523Y-30443142D01*
X208137523Y-30195523D01*
X208447047Y-30845523D02*
X207797047Y-30845523D01*
X208447047Y-31155047D02*
X207797047Y-31155047D01*
X208447047Y-31526476D01*
X207797047Y-31526476D01*
X267214380Y-51642571D02*
X267709619Y-51642571D01*
X267214380Y-46816571D02*
X267709619Y-46816571D01*
X267214380Y-42244571D02*
X267709619Y-42244571D01*
X268865380Y-34243571D02*
X269360619Y-34243571D01*
X208453428Y-46107380D02*
X208453428Y-46602619D01*
X208453428Y-38106380D02*
X208453428Y-38601619D01*
X208326428Y-32264380D02*
X208326428Y-32759619D01*
X265296619Y-51608428D02*
X264801380Y-51608428D01*
X265049000Y-51856047D02*
X265049000Y-51360809D01*
X265296619Y-46782428D02*
X264801380Y-46782428D01*
X265049000Y-47030047D02*
X265049000Y-46534809D01*
X265169619Y-42210428D02*
X264674380Y-42210428D01*
X264922000Y-42458047D02*
X264922000Y-41962809D01*
X263391619Y-34209428D02*
X262896380Y-34209428D01*
X263144000Y-34457047D02*
X263144000Y-33961809D01*
X208654619Y-49195428D02*
X208159380Y-49195428D01*
X208407000Y-49443047D02*
X208407000Y-48947809D01*
X208654619Y-41067428D02*
X208159380Y-41067428D01*
X208407000Y-41315047D02*
X208407000Y-40819809D01*
X208527619Y-29510428D02*
X208032380Y-29510428D01*
X208280000Y-29758047D02*
X208280000Y-29262809D01*
X208527619Y-29510428D02*
X208032380Y-29510428D01*
X208280000Y-29758047D02*
X208280000Y-29262809D01*
X247881428Y-30659428D02*
X247881428Y-31088000D01*
X247910000Y-31173714D01*
X247967142Y-31230857D01*
X248052857Y-31259428D01*
X248110000Y-31259428D01*
X247310000Y-31259428D02*
X247595714Y-31259428D01*
X247595714Y-30659428D01*
X246767142Y-31202285D02*
X246795714Y-31230857D01*
X246881428Y-31259428D01*
X246938571Y-31259428D01*
X247024285Y-31230857D01*
X247081428Y-31173714D01*
X247110000Y-31116571D01*
X247138571Y-31002285D01*
X247138571Y-30916571D01*
X247110000Y-30802285D01*
X247081428Y-30745142D01*
X247024285Y-30688000D01*
X246938571Y-30659428D01*
X246881428Y-30659428D01*
X246795714Y-30688000D01*
X246767142Y-30716571D01*
X246338571Y-30659428D02*
X246338571Y-31088000D01*
X246367142Y-31173714D01*
X246424285Y-31230857D01*
X246510000Y-31259428D01*
X246567142Y-31259428D01*
X245767142Y-31259428D02*
X246052857Y-31259428D01*
X246052857Y-30659428D01*
X245224285Y-31202285D02*
X245252857Y-31230857D01*
X245338571Y-31259428D01*
X245395714Y-31259428D01*
X245481428Y-31230857D01*
X245538571Y-31173714D01*
X245567142Y-31116571D01*
X245595714Y-31002285D01*
X245595714Y-30916571D01*
X245567142Y-30802285D01*
X245538571Y-30745142D01*
X245481428Y-30688000D01*
X245395714Y-30659428D01*
X245338571Y-30659428D01*
X245252857Y-30688000D01*
X245224285Y-30716571D01*
X244795714Y-30659428D02*
X244795714Y-31088000D01*
X244824285Y-31173714D01*
X244881428Y-31230857D01*
X244967142Y-31259428D01*
X245024285Y-31259428D01*
X244224285Y-31259428D02*
X244510000Y-31259428D01*
X244510000Y-30659428D01*
X243681428Y-31202285D02*
X243710000Y-31230857D01*
X243795714Y-31259428D01*
X243852857Y-31259428D01*
X243938571Y-31230857D01*
X243995714Y-31173714D01*
X244024285Y-31116571D01*
X244052857Y-31002285D01*
X244052857Y-30916571D01*
X244024285Y-30802285D01*
X243995714Y-30745142D01*
X243938571Y-30688000D01*
X243852857Y-30659428D01*
X243795714Y-30659428D01*
X243710000Y-30688000D01*
X243681428Y-30716571D01*
X243252857Y-30659428D02*
X243252857Y-31088000D01*
X243281428Y-31173714D01*
X243338571Y-31230857D01*
X243424285Y-31259428D01*
X243481428Y-31259428D01*
X242681428Y-31259428D02*
X242967142Y-31259428D01*
X242967142Y-30659428D01*
X242138571Y-31202285D02*
X242167142Y-31230857D01*
X242252857Y-31259428D01*
X242310000Y-31259428D01*
X242395714Y-31230857D01*
X242452857Y-31173714D01*
X242481428Y-31116571D01*
X242510000Y-31002285D01*
X242510000Y-30916571D01*
X242481428Y-30802285D01*
X242452857Y-30745142D01*
X242395714Y-30688000D01*
X242310000Y-30659428D01*
X242252857Y-30659428D01*
X242167142Y-30688000D01*
X242138571Y-30716571D01*
X250134571Y-51379428D02*
X250277428Y-51331809D01*
X250325047Y-51284190D01*
X250372666Y-51188952D01*
X250372666Y-51046095D01*
X250325047Y-50950857D01*
X250277428Y-50903238D01*
X250182190Y-50855619D01*
X249801238Y-50855619D01*
X249801238Y-51855619D01*
X250134571Y-51855619D01*
X250229809Y-51808000D01*
X250277428Y-51760380D01*
X250325047Y-51665142D01*
X250325047Y-51569904D01*
X250277428Y-51474666D01*
X250229809Y-51427047D01*
X250134571Y-51379428D01*
X249801238Y-51379428D01*
X250944095Y-50855619D02*
X250848857Y-50903238D01*
X250801238Y-50998476D01*
X250801238Y-51855619D01*
X251753619Y-51522285D02*
X251753619Y-50855619D01*
X251325047Y-51522285D02*
X251325047Y-50998476D01*
X251372666Y-50903238D01*
X251467904Y-50855619D01*
X251610761Y-50855619D01*
X251706000Y-50903238D01*
X251753619Y-50950857D01*
X252610761Y-50903238D02*
X252515523Y-50855619D01*
X252325047Y-50855619D01*
X252229809Y-50903238D01*
X252182190Y-50998476D01*
X252182190Y-51379428D01*
X252229809Y-51474666D01*
X252325047Y-51522285D01*
X252515523Y-51522285D01*
X252610761Y-51474666D01*
X252658380Y-51379428D01*
X252658380Y-51284190D01*
X252182190Y-51188952D01*
X230544857Y-51554000D02*
X230449619Y-51601619D01*
X230306761Y-51601619D01*
X230163904Y-51554000D01*
X230068666Y-51458761D01*
X230021047Y-51363523D01*
X229973428Y-51173047D01*
X229973428Y-51030190D01*
X230021047Y-50839714D01*
X230068666Y-50744476D01*
X230163904Y-50649238D01*
X230306761Y-50601619D01*
X230402000Y-50601619D01*
X230544857Y-50649238D01*
X230592476Y-50696857D01*
X230592476Y-51030190D01*
X230402000Y-51030190D01*
X231021047Y-50601619D02*
X231021047Y-51268285D01*
X231021047Y-51077809D02*
X231068666Y-51173047D01*
X231116285Y-51220666D01*
X231211523Y-51268285D01*
X231306761Y-51268285D01*
X232021047Y-50649238D02*
X231925809Y-50601619D01*
X231735333Y-50601619D01*
X231640095Y-50649238D01*
X231592476Y-50744476D01*
X231592476Y-51125428D01*
X231640095Y-51220666D01*
X231735333Y-51268285D01*
X231925809Y-51268285D01*
X232021047Y-51220666D01*
X232068666Y-51125428D01*
X232068666Y-51030190D01*
X231592476Y-50934952D01*
X232878190Y-50649238D02*
X232782952Y-50601619D01*
X232592476Y-50601619D01*
X232497238Y-50649238D01*
X232449619Y-50744476D01*
X232449619Y-51125428D01*
X232497238Y-51220666D01*
X232592476Y-51268285D01*
X232782952Y-51268285D01*
X232878190Y-51220666D01*
X232925809Y-51125428D01*
X232925809Y-51030190D01*
X232449619Y-50934952D01*
X233354380Y-51268285D02*
X233354380Y-50601619D01*
X233354380Y-51173047D02*
X233402000Y-51220666D01*
X233497238Y-51268285D01*
X233640095Y-51268285D01*
X233735333Y-51220666D01*
X233782952Y-51125428D01*
X233782952Y-50601619D01*
X212280571Y-50604619D02*
X211947238Y-51080809D01*
X211709142Y-50604619D02*
X211709142Y-51604619D01*
X212090095Y-51604619D01*
X212185333Y-51557000D01*
X212232952Y-51509380D01*
X212280571Y-51414142D01*
X212280571Y-51271285D01*
X212232952Y-51176047D01*
X212185333Y-51128428D01*
X212090095Y-51080809D01*
X211709142Y-51080809D01*
X213090095Y-50652238D02*
X212994857Y-50604619D01*
X212804380Y-50604619D01*
X212709142Y-50652238D01*
X212661523Y-50747476D01*
X212661523Y-51128428D01*
X212709142Y-51223666D01*
X212804380Y-51271285D01*
X212994857Y-51271285D01*
X213090095Y-51223666D01*
X213137714Y-51128428D01*
X213137714Y-51033190D01*
X212661523Y-50937952D01*
X213994857Y-50604619D02*
X213994857Y-51604619D01*
X213994857Y-50652238D02*
X213899619Y-50604619D01*
X213709142Y-50604619D01*
X213613904Y-50652238D01*
X213566285Y-50699857D01*
X213518666Y-50795095D01*
X213518666Y-51080809D01*
X213566285Y-51176047D01*
X213613904Y-51223666D01*
X213709142Y-51271285D01*
X213899619Y-51271285D01*
X213994857Y-51223666D01*
D11*
%TO.C,U1*%
X255431000Y-38030000D02*
X253481000Y-38030000D01*
X255431000Y-38030000D02*
X257381000Y-38030000D01*
X255431000Y-32910000D02*
X253481000Y-32910000D01*
X255431000Y-32910000D02*
X258881000Y-32910000D01*
%TO.C,R14*%
X258065000Y-56220379D02*
X258065000Y-56555621D01*
X258825000Y-56220379D02*
X258825000Y-56555621D01*
%TO.C,R11*%
X239015000Y-56093379D02*
X239015000Y-56428621D01*
X239775000Y-56093379D02*
X239775000Y-56428621D01*
%TO.C,R8*%
X248956500Y-37200724D02*
X248956500Y-36691276D01*
X247911500Y-37200724D02*
X247911500Y-36691276D01*
%TO.C,R7*%
X245393936Y-38055000D02*
X245848064Y-38055000D01*
X245393936Y-36585000D02*
X245848064Y-36585000D01*
%TO.C,R6*%
X219965000Y-56220379D02*
X219965000Y-56555621D01*
X220725000Y-56220379D02*
X220725000Y-56555621D01*
%TO.C,R5*%
X250182000Y-35860621D02*
X250182000Y-35525379D01*
X249422000Y-35860621D02*
X249422000Y-35525379D01*
%TO.C,R4*%
X260493000Y-36644379D02*
X260493000Y-36979621D01*
X261253000Y-36644379D02*
X261253000Y-36979621D01*
%TO.C,R3*%
X259396000Y-35402379D02*
X259396000Y-35737621D01*
X260156000Y-35402379D02*
X260156000Y-35737621D01*
%TO.C,R2*%
X212811379Y-30860000D02*
X213146621Y-30860000D01*
X212811379Y-30100000D02*
X213146621Y-30100000D01*
%TO.C,R1*%
X212811379Y-32130000D02*
X213146621Y-32130000D01*
X212811379Y-31370000D02*
X213146621Y-31370000D01*
%TO.C,Q1*%
X228928000Y-31071000D02*
X228698000Y-31071000D01*
X224208000Y-31071000D02*
X224438000Y-31071000D01*
X224208000Y-31071000D02*
X224208000Y-33791000D01*
X224208000Y-33791000D02*
X225518000Y-33791000D01*
X224438000Y-29931000D02*
X224438000Y-31071000D01*
X228928000Y-33791000D02*
X228928000Y-31071000D01*
X227618000Y-33791000D02*
X228928000Y-33791000D01*
%TO.C,L1*%
X248414000Y-26879000D02*
X246934000Y-26879000D01*
X248414000Y-34079000D02*
X248414000Y-30479000D01*
X248414000Y-30479000D02*
X248414000Y-26879000D01*
X248414000Y-34079000D02*
X246934000Y-34079000D01*
X241922000Y-26859000D02*
X243402000Y-26859000D01*
X241922000Y-26859000D02*
X241922000Y-30459000D01*
X241922000Y-34059000D02*
X243402000Y-34059000D01*
X241922000Y-30459000D02*
X241922000Y-34059000D01*
D12*
%TO.C,IC1*%
X214584000Y-33695000D02*
X216109000Y-33695000D01*
D11*
%TO.C,F1*%
X241317248Y-25565000D02*
X245724752Y-25565000D01*
X241317248Y-20225000D02*
X245724752Y-20225000D01*
%TO.C,D1*%
X248707000Y-31862000D02*
X248707000Y-28562000D01*
X248707000Y-28562000D02*
X255607000Y-28562000D01*
X248707000Y-31862000D02*
X255607000Y-31862000D01*
%TO.C,C11*%
X250437849Y-24363741D02*
X251860353Y-24363741D01*
X250437849Y-21643741D02*
X251860353Y-21643741D01*
%TO.C,C10*%
X250434248Y-27902000D02*
X251856752Y-27902000D01*
X250434248Y-25182000D02*
X251856752Y-25182000D01*
%TO.C,C9*%
X219223000Y-34936165D02*
X219223000Y-35167835D01*
X219943000Y-34936165D02*
X219943000Y-35167835D01*
%TO.C,C8*%
X220874000Y-34936165D02*
X220874000Y-35167835D01*
X221594000Y-34936165D02*
X221594000Y-35167835D01*
%TO.C,C7*%
X250535835Y-37030000D02*
X250304165Y-37030000D01*
X250535835Y-37750000D02*
X250304165Y-37750000D01*
%TO.C,C6*%
X222150000Y-34812248D02*
X222150000Y-35334752D01*
X223620000Y-34812248D02*
X223620000Y-35334752D01*
%TO.C,C5*%
X250604000Y-32895165D02*
X250604000Y-33126835D01*
X251324000Y-32895165D02*
X251324000Y-33126835D01*
%TO.C,C4*%
X251394000Y-35826835D02*
X251394000Y-35595165D01*
X250674000Y-35826835D02*
X250674000Y-35595165D01*
%TO.C,C3*%
X259424000Y-37803665D02*
X259424000Y-38035335D01*
X260144000Y-37803665D02*
X260144000Y-38035335D01*
%TO.C,C2*%
X260940252Y-30958000D02*
X260417748Y-30958000D01*
X260940252Y-32428000D02*
X260417748Y-32428000D01*
%TO.C,C1*%
X260939252Y-28819000D02*
X260416748Y-28819000D01*
X260939252Y-30289000D02*
X260416748Y-30289000D01*
%TO.C,U1*%
D10*
X258389238Y-32072047D02*
X258389238Y-32598238D01*
X258358285Y-32660142D01*
X258327333Y-32691095D01*
X258265428Y-32722047D01*
X258141619Y-32722047D01*
X258079714Y-32691095D01*
X258048761Y-32660142D01*
X258017809Y-32598238D01*
X258017809Y-32072047D01*
X257367809Y-32722047D02*
X257739238Y-32722047D01*
X257553523Y-32722047D02*
X257553523Y-32072047D01*
X257615428Y-32164904D01*
X257677333Y-32226809D01*
X257739238Y-32257761D01*
%TO.C,R14*%
X257840047Y-55976142D02*
X257530523Y-55759476D01*
X257840047Y-55604714D02*
X257190047Y-55604714D01*
X257190047Y-55852333D01*
X257221000Y-55914238D01*
X257251952Y-55945190D01*
X257313857Y-55976142D01*
X257406714Y-55976142D01*
X257468619Y-55945190D01*
X257499571Y-55914238D01*
X257530523Y-55852333D01*
X257530523Y-55604714D01*
X257840047Y-56595190D02*
X257840047Y-56223761D01*
X257840047Y-56409476D02*
X257190047Y-56409476D01*
X257282904Y-56347571D01*
X257344809Y-56285666D01*
X257375761Y-56223761D01*
X257406714Y-57152333D02*
X257840047Y-57152333D01*
X257159095Y-56997571D02*
X257623380Y-56842809D01*
X257623380Y-57245190D01*
%TO.C,R11*%
X239487857Y-55001047D02*
X239704523Y-54691523D01*
X239859285Y-55001047D02*
X239859285Y-54351047D01*
X239611666Y-54351047D01*
X239549761Y-54382000D01*
X239518809Y-54412952D01*
X239487857Y-54474857D01*
X239487857Y-54567714D01*
X239518809Y-54629619D01*
X239549761Y-54660571D01*
X239611666Y-54691523D01*
X239859285Y-54691523D01*
X238868809Y-55001047D02*
X239240238Y-55001047D01*
X239054523Y-55001047D02*
X239054523Y-54351047D01*
X239116428Y-54443904D01*
X239178333Y-54505809D01*
X239240238Y-54536761D01*
X238249761Y-55001047D02*
X238621190Y-55001047D01*
X238435476Y-55001047D02*
X238435476Y-54351047D01*
X238497380Y-54443904D01*
X238559285Y-54505809D01*
X238621190Y-54536761D01*
%TO.C,R8*%
X248501333Y-39117047D02*
X248718000Y-38807523D01*
X248872761Y-39117047D02*
X248872761Y-38467047D01*
X248625142Y-38467047D01*
X248563238Y-38498000D01*
X248532285Y-38528952D01*
X248501333Y-38590857D01*
X248501333Y-38683714D01*
X248532285Y-38745619D01*
X248563238Y-38776571D01*
X248625142Y-38807523D01*
X248872761Y-38807523D01*
X248129904Y-38745619D02*
X248191809Y-38714666D01*
X248222761Y-38683714D01*
X248253714Y-38621809D01*
X248253714Y-38590857D01*
X248222761Y-38528952D01*
X248191809Y-38498000D01*
X248129904Y-38467047D01*
X248006095Y-38467047D01*
X247944190Y-38498000D01*
X247913238Y-38528952D01*
X247882285Y-38590857D01*
X247882285Y-38621809D01*
X247913238Y-38683714D01*
X247944190Y-38714666D01*
X248006095Y-38745619D01*
X248129904Y-38745619D01*
X248191809Y-38776571D01*
X248222761Y-38807523D01*
X248253714Y-38869428D01*
X248253714Y-38993238D01*
X248222761Y-39055142D01*
X248191809Y-39086095D01*
X248129904Y-39117047D01*
X248006095Y-39117047D01*
X247944190Y-39086095D01*
X247913238Y-39055142D01*
X247882285Y-38993238D01*
X247882285Y-38869428D01*
X247913238Y-38807523D01*
X247944190Y-38776571D01*
X248006095Y-38745619D01*
%TO.C,R7*%
X243533047Y-37205666D02*
X243223523Y-36989000D01*
X243533047Y-36834238D02*
X242883047Y-36834238D01*
X242883047Y-37081857D01*
X242914000Y-37143761D01*
X242944952Y-37174714D01*
X243006857Y-37205666D01*
X243099714Y-37205666D01*
X243161619Y-37174714D01*
X243192571Y-37143761D01*
X243223523Y-37081857D01*
X243223523Y-36834238D01*
X242883047Y-37422333D02*
X242883047Y-37855666D01*
X243533047Y-37577095D01*
%TO.C,R6*%
X219672047Y-56273666D02*
X219362523Y-56057000D01*
X219672047Y-55902238D02*
X219022047Y-55902238D01*
X219022047Y-56149857D01*
X219053000Y-56211761D01*
X219083952Y-56242714D01*
X219145857Y-56273666D01*
X219238714Y-56273666D01*
X219300619Y-56242714D01*
X219331571Y-56211761D01*
X219362523Y-56149857D01*
X219362523Y-55902238D01*
X219022047Y-56830809D02*
X219022047Y-56707000D01*
X219053000Y-56645095D01*
X219083952Y-56614142D01*
X219176809Y-56552238D01*
X219300619Y-56521285D01*
X219548238Y-56521285D01*
X219610142Y-56552238D01*
X219641095Y-56583190D01*
X219672047Y-56645095D01*
X219672047Y-56768904D01*
X219641095Y-56830809D01*
X219610142Y-56861761D01*
X219548238Y-56892714D01*
X219393476Y-56892714D01*
X219331571Y-56861761D01*
X219300619Y-56830809D01*
X219269666Y-56768904D01*
X219269666Y-56645095D01*
X219300619Y-56583190D01*
X219331571Y-56552238D01*
X219393476Y-56521285D01*
%TO.C,R5*%
X249915333Y-34574047D02*
X250132000Y-34264523D01*
X250286761Y-34574047D02*
X250286761Y-33924047D01*
X250039142Y-33924047D01*
X249977238Y-33955000D01*
X249946285Y-33985952D01*
X249915333Y-34047857D01*
X249915333Y-34140714D01*
X249946285Y-34202619D01*
X249977238Y-34233571D01*
X250039142Y-34264523D01*
X250286761Y-34264523D01*
X249327238Y-33924047D02*
X249636761Y-33924047D01*
X249667714Y-34233571D01*
X249636761Y-34202619D01*
X249574857Y-34171666D01*
X249420095Y-34171666D01*
X249358190Y-34202619D01*
X249327238Y-34233571D01*
X249296285Y-34295476D01*
X249296285Y-34450238D01*
X249327238Y-34512142D01*
X249358190Y-34543095D01*
X249420095Y-34574047D01*
X249574857Y-34574047D01*
X249636761Y-34543095D01*
X249667714Y-34512142D01*
%TO.C,R4*%
X262201666Y-36588333D02*
X261868333Y-36355000D01*
X262201666Y-36188333D02*
X261501666Y-36188333D01*
X261501666Y-36455000D01*
X261535000Y-36521666D01*
X261568333Y-36555000D01*
X261635000Y-36588333D01*
X261735000Y-36588333D01*
X261801666Y-36555000D01*
X261835000Y-36521666D01*
X261868333Y-36455000D01*
X261868333Y-36188333D01*
X261735000Y-37188333D02*
X262201666Y-37188333D01*
X261468333Y-37021666D02*
X261968333Y-36855000D01*
X261968333Y-37288333D01*
%TO.C,R3*%
X261132428Y-34872000D02*
X260846714Y-34672000D01*
X261132428Y-34529142D02*
X260532428Y-34529142D01*
X260532428Y-34757714D01*
X260561000Y-34814857D01*
X260589571Y-34843428D01*
X260646714Y-34872000D01*
X260732428Y-34872000D01*
X260789571Y-34843428D01*
X260818142Y-34814857D01*
X260846714Y-34757714D01*
X260846714Y-34529142D01*
X260532428Y-35072000D02*
X260532428Y-35443428D01*
X260761000Y-35243428D01*
X260761000Y-35329142D01*
X260789571Y-35386285D01*
X260818142Y-35414857D01*
X260875285Y-35443428D01*
X261018142Y-35443428D01*
X261075285Y-35414857D01*
X261103857Y-35386285D01*
X261132428Y-35329142D01*
X261132428Y-35157714D01*
X261103857Y-35100571D01*
X261075285Y-35072000D01*
%TO.C,R2*%
X213085333Y-29787047D02*
X213302000Y-29477523D01*
X213456761Y-29787047D02*
X213456761Y-29137047D01*
X213209142Y-29137047D01*
X213147238Y-29168000D01*
X213116285Y-29198952D01*
X213085333Y-29260857D01*
X213085333Y-29353714D01*
X213116285Y-29415619D01*
X213147238Y-29446571D01*
X213209142Y-29477523D01*
X213456761Y-29477523D01*
X212837714Y-29198952D02*
X212806761Y-29168000D01*
X212744857Y-29137047D01*
X212590095Y-29137047D01*
X212528190Y-29168000D01*
X212497238Y-29198952D01*
X212466285Y-29260857D01*
X212466285Y-29322761D01*
X212497238Y-29415619D01*
X212868666Y-29787047D01*
X212466285Y-29787047D01*
%TO.C,R1*%
X213085333Y-33002047D02*
X213302000Y-32692523D01*
X213456761Y-33002047D02*
X213456761Y-32352047D01*
X213209142Y-32352047D01*
X213147238Y-32383000D01*
X213116285Y-32413952D01*
X213085333Y-32475857D01*
X213085333Y-32568714D01*
X213116285Y-32630619D01*
X213147238Y-32661571D01*
X213209142Y-32692523D01*
X213456761Y-32692523D01*
X212466285Y-33002047D02*
X212837714Y-33002047D01*
X212652000Y-33002047D02*
X212652000Y-32352047D01*
X212713904Y-32444904D01*
X212775809Y-32506809D01*
X212837714Y-32537761D01*
%TO.C,Q1*%
X224191952Y-29846095D02*
X224161000Y-29784190D01*
X224099095Y-29722285D01*
X224006238Y-29629428D01*
X223975285Y-29567523D01*
X223975285Y-29505619D01*
X224130047Y-29536571D02*
X224099095Y-29474666D01*
X224037190Y-29412761D01*
X223913380Y-29381809D01*
X223696714Y-29381809D01*
X223572904Y-29412761D01*
X223511000Y-29474666D01*
X223480047Y-29536571D01*
X223480047Y-29660380D01*
X223511000Y-29722285D01*
X223572904Y-29784190D01*
X223696714Y-29815142D01*
X223913380Y-29815142D01*
X224037190Y-29784190D01*
X224099095Y-29722285D01*
X224130047Y-29660380D01*
X224130047Y-29536571D01*
X224130047Y-30434190D02*
X224130047Y-30062761D01*
X224130047Y-30248476D02*
X223480047Y-30248476D01*
X223572904Y-30186571D01*
X223634809Y-30124666D01*
X223665761Y-30062761D01*
%TO.C,L1*%
X241450047Y-27377666D02*
X241450047Y-27068142D01*
X240800047Y-27068142D01*
X241450047Y-27934809D02*
X241450047Y-27563380D01*
X241450047Y-27749095D02*
X240800047Y-27749095D01*
X240892904Y-27687190D01*
X240954809Y-27625285D01*
X240985761Y-27563380D01*
%TO.C,IC1*%
X214128476Y-34642047D02*
X214128476Y-33992047D01*
X214809428Y-34580142D02*
X214778476Y-34611095D01*
X214685619Y-34642047D01*
X214623714Y-34642047D01*
X214530857Y-34611095D01*
X214468952Y-34549190D01*
X214438000Y-34487285D01*
X214407047Y-34363476D01*
X214407047Y-34270619D01*
X214438000Y-34146809D01*
X214468952Y-34084904D01*
X214530857Y-34023000D01*
X214623714Y-33992047D01*
X214685619Y-33992047D01*
X214778476Y-34023000D01*
X214809428Y-34053952D01*
X215428476Y-34642047D02*
X215057047Y-34642047D01*
X215242761Y-34642047D02*
X215242761Y-33992047D01*
X215180857Y-34084904D01*
X215118952Y-34146809D01*
X215057047Y-34177761D01*
%TO.C,F1*%
X243636666Y-22852571D02*
X243853333Y-22852571D01*
X243853333Y-23193047D02*
X243853333Y-22543047D01*
X243543809Y-22543047D01*
X242955714Y-23193047D02*
X243327142Y-23193047D01*
X243141428Y-23193047D02*
X243141428Y-22543047D01*
X243203333Y-22635904D01*
X243265238Y-22697809D01*
X243327142Y-22728761D01*
%TO.C,D1*%
X249451857Y-32215428D02*
X249451857Y-31615428D01*
X249309000Y-31615428D01*
X249223285Y-31644000D01*
X249166142Y-31701142D01*
X249137571Y-31758285D01*
X249109000Y-31872571D01*
X249109000Y-31958285D01*
X249137571Y-32072571D01*
X249166142Y-32129714D01*
X249223285Y-32186857D01*
X249309000Y-32215428D01*
X249451857Y-32215428D01*
X248537571Y-32215428D02*
X248880428Y-32215428D01*
X248709000Y-32215428D02*
X248709000Y-31615428D01*
X248766142Y-31701142D01*
X248823285Y-31758285D01*
X248880428Y-31786857D01*
%TO.C,C11*%
X254117142Y-22583142D02*
X254148095Y-22552190D01*
X254179047Y-22459333D01*
X254179047Y-22397428D01*
X254148095Y-22304571D01*
X254086190Y-22242666D01*
X254024285Y-22211714D01*
X253900476Y-22180761D01*
X253807619Y-22180761D01*
X253683809Y-22211714D01*
X253621904Y-22242666D01*
X253560000Y-22304571D01*
X253529047Y-22397428D01*
X253529047Y-22459333D01*
X253560000Y-22552190D01*
X253590952Y-22583142D01*
X254179047Y-23202190D02*
X254179047Y-22830761D01*
X254179047Y-23016476D02*
X253529047Y-23016476D01*
X253621904Y-22954571D01*
X253683809Y-22892666D01*
X253714761Y-22830761D01*
X254179047Y-23821238D02*
X254179047Y-23449809D01*
X254179047Y-23635523D02*
X253529047Y-23635523D01*
X253621904Y-23573619D01*
X253683809Y-23511714D01*
X253714761Y-23449809D01*
%TO.C,C10*%
X254135142Y-26119142D02*
X254166095Y-26088190D01*
X254197047Y-25995333D01*
X254197047Y-25933428D01*
X254166095Y-25840571D01*
X254104190Y-25778666D01*
X254042285Y-25747714D01*
X253918476Y-25716761D01*
X253825619Y-25716761D01*
X253701809Y-25747714D01*
X253639904Y-25778666D01*
X253578000Y-25840571D01*
X253547047Y-25933428D01*
X253547047Y-25995333D01*
X253578000Y-26088190D01*
X253608952Y-26119142D01*
X254197047Y-26738190D02*
X254197047Y-26366761D01*
X254197047Y-26552476D02*
X253547047Y-26552476D01*
X253639904Y-26490571D01*
X253701809Y-26428666D01*
X253732761Y-26366761D01*
X253547047Y-27140571D02*
X253547047Y-27202476D01*
X253578000Y-27264380D01*
X253608952Y-27295333D01*
X253670857Y-27326285D01*
X253794666Y-27357238D01*
X253949428Y-27357238D01*
X254073238Y-27326285D01*
X254135142Y-27295333D01*
X254166095Y-27264380D01*
X254197047Y-27202476D01*
X254197047Y-27140571D01*
X254166095Y-27078666D01*
X254135142Y-27047714D01*
X254073238Y-27016761D01*
X253949428Y-26985809D01*
X253794666Y-26985809D01*
X253670857Y-27016761D01*
X253608952Y-27047714D01*
X253578000Y-27078666D01*
X253547047Y-27140571D01*
%TO.C,C9*%
X219722333Y-36749142D02*
X219753285Y-36780095D01*
X219846142Y-36811047D01*
X219908047Y-36811047D01*
X220000904Y-36780095D01*
X220062809Y-36718190D01*
X220093761Y-36656285D01*
X220124714Y-36532476D01*
X220124714Y-36439619D01*
X220093761Y-36315809D01*
X220062809Y-36253904D01*
X220000904Y-36192000D01*
X219908047Y-36161047D01*
X219846142Y-36161047D01*
X219753285Y-36192000D01*
X219722333Y-36222952D01*
X219412809Y-36811047D02*
X219289000Y-36811047D01*
X219227095Y-36780095D01*
X219196142Y-36749142D01*
X219134238Y-36656285D01*
X219103285Y-36532476D01*
X219103285Y-36284857D01*
X219134238Y-36222952D01*
X219165190Y-36192000D01*
X219227095Y-36161047D01*
X219350904Y-36161047D01*
X219412809Y-36192000D01*
X219443761Y-36222952D01*
X219474714Y-36284857D01*
X219474714Y-36439619D01*
X219443761Y-36501523D01*
X219412809Y-36532476D01*
X219350904Y-36563428D01*
X219227095Y-36563428D01*
X219165190Y-36532476D01*
X219134238Y-36501523D01*
X219103285Y-36439619D01*
%TO.C,C8*%
X221345333Y-36764142D02*
X221376285Y-36795095D01*
X221469142Y-36826047D01*
X221531047Y-36826047D01*
X221623904Y-36795095D01*
X221685809Y-36733190D01*
X221716761Y-36671285D01*
X221747714Y-36547476D01*
X221747714Y-36454619D01*
X221716761Y-36330809D01*
X221685809Y-36268904D01*
X221623904Y-36207000D01*
X221531047Y-36176047D01*
X221469142Y-36176047D01*
X221376285Y-36207000D01*
X221345333Y-36237952D01*
X220973904Y-36454619D02*
X221035809Y-36423666D01*
X221066761Y-36392714D01*
X221097714Y-36330809D01*
X221097714Y-36299857D01*
X221066761Y-36237952D01*
X221035809Y-36207000D01*
X220973904Y-36176047D01*
X220850095Y-36176047D01*
X220788190Y-36207000D01*
X220757238Y-36237952D01*
X220726285Y-36299857D01*
X220726285Y-36330809D01*
X220757238Y-36392714D01*
X220788190Y-36423666D01*
X220850095Y-36454619D01*
X220973904Y-36454619D01*
X221035809Y-36485571D01*
X221066761Y-36516523D01*
X221097714Y-36578428D01*
X221097714Y-36702238D01*
X221066761Y-36764142D01*
X221035809Y-36795095D01*
X220973904Y-36826047D01*
X220850095Y-36826047D01*
X220788190Y-36795095D01*
X220757238Y-36764142D01*
X220726285Y-36702238D01*
X220726285Y-36578428D01*
X220757238Y-36516523D01*
X220788190Y-36485571D01*
X220850095Y-36454619D01*
%TO.C,C7*%
X250524333Y-38558142D02*
X250555285Y-38589095D01*
X250648142Y-38620047D01*
X250710047Y-38620047D01*
X250802904Y-38589095D01*
X250864809Y-38527190D01*
X250895761Y-38465285D01*
X250926714Y-38341476D01*
X250926714Y-38248619D01*
X250895761Y-38124809D01*
X250864809Y-38062904D01*
X250802904Y-38001000D01*
X250710047Y-37970047D01*
X250648142Y-37970047D01*
X250555285Y-38001000D01*
X250524333Y-38031952D01*
X250307666Y-37970047D02*
X249874333Y-37970047D01*
X250152904Y-38620047D01*
%TO.C,C6*%
X223003333Y-33160142D02*
X223034285Y-33191095D01*
X223127142Y-33222047D01*
X223189047Y-33222047D01*
X223281904Y-33191095D01*
X223343809Y-33129190D01*
X223374761Y-33067285D01*
X223405714Y-32943476D01*
X223405714Y-32850619D01*
X223374761Y-32726809D01*
X223343809Y-32664904D01*
X223281904Y-32603000D01*
X223189047Y-32572047D01*
X223127142Y-32572047D01*
X223034285Y-32603000D01*
X223003333Y-32633952D01*
X222446190Y-32572047D02*
X222570000Y-32572047D01*
X222631904Y-32603000D01*
X222662857Y-32633952D01*
X222724761Y-32726809D01*
X222755714Y-32850619D01*
X222755714Y-33098238D01*
X222724761Y-33160142D01*
X222693809Y-33191095D01*
X222631904Y-33222047D01*
X222508095Y-33222047D01*
X222446190Y-33191095D01*
X222415238Y-33160142D01*
X222384285Y-33098238D01*
X222384285Y-32943476D01*
X222415238Y-32881571D01*
X222446190Y-32850619D01*
X222508095Y-32819666D01*
X222631904Y-32819666D01*
X222693809Y-32850619D01*
X222724761Y-32881571D01*
X222755714Y-32943476D01*
%TO.C,C5*%
X250273142Y-32570666D02*
X250304095Y-32539714D01*
X250335047Y-32446857D01*
X250335047Y-32384952D01*
X250304095Y-32292095D01*
X250242190Y-32230190D01*
X250180285Y-32199238D01*
X250056476Y-32168285D01*
X249963619Y-32168285D01*
X249839809Y-32199238D01*
X249777904Y-32230190D01*
X249716000Y-32292095D01*
X249685047Y-32384952D01*
X249685047Y-32446857D01*
X249716000Y-32539714D01*
X249746952Y-32570666D01*
X249685047Y-33158761D02*
X249685047Y-32849238D01*
X249994571Y-32818285D01*
X249963619Y-32849238D01*
X249932666Y-32911142D01*
X249932666Y-33065904D01*
X249963619Y-33127809D01*
X249994571Y-33158761D01*
X250056476Y-33189714D01*
X250211238Y-33189714D01*
X250273142Y-33158761D01*
X250304095Y-33127809D01*
X250335047Y-33065904D01*
X250335047Y-32911142D01*
X250304095Y-32849238D01*
X250273142Y-32818285D01*
%TO.C,C4*%
X251283000Y-34631285D02*
X251311571Y-34659857D01*
X251397285Y-34688428D01*
X251454428Y-34688428D01*
X251540142Y-34659857D01*
X251597285Y-34602714D01*
X251625857Y-34545571D01*
X251654428Y-34431285D01*
X251654428Y-34345571D01*
X251625857Y-34231285D01*
X251597285Y-34174142D01*
X251540142Y-34117000D01*
X251454428Y-34088428D01*
X251397285Y-34088428D01*
X251311571Y-34117000D01*
X251283000Y-34145571D01*
X250768714Y-34288428D02*
X250768714Y-34688428D01*
X250911571Y-34059857D02*
X251054428Y-34488428D01*
X250683000Y-34488428D01*
%TO.C,C3*%
X259911000Y-39625285D02*
X259939571Y-39653857D01*
X260025285Y-39682428D01*
X260082428Y-39682428D01*
X260168142Y-39653857D01*
X260225285Y-39596714D01*
X260253857Y-39539571D01*
X260282428Y-39425285D01*
X260282428Y-39339571D01*
X260253857Y-39225285D01*
X260225285Y-39168142D01*
X260168142Y-39111000D01*
X260082428Y-39082428D01*
X260025285Y-39082428D01*
X259939571Y-39111000D01*
X259911000Y-39139571D01*
X259711000Y-39082428D02*
X259339571Y-39082428D01*
X259539571Y-39311000D01*
X259453857Y-39311000D01*
X259396714Y-39339571D01*
X259368142Y-39368142D01*
X259339571Y-39425285D01*
X259339571Y-39568142D01*
X259368142Y-39625285D01*
X259396714Y-39653857D01*
X259453857Y-39682428D01*
X259625285Y-39682428D01*
X259682428Y-39653857D01*
X259711000Y-39625285D01*
%TO.C,C2*%
X260828666Y-33548000D02*
X260862000Y-33581333D01*
X260962000Y-33614666D01*
X261028666Y-33614666D01*
X261128666Y-33581333D01*
X261195333Y-33514666D01*
X261228666Y-33448000D01*
X261262000Y-33314666D01*
X261262000Y-33214666D01*
X261228666Y-33081333D01*
X261195333Y-33014666D01*
X261128666Y-32948000D01*
X261028666Y-32914666D01*
X260962000Y-32914666D01*
X260862000Y-32948000D01*
X260828666Y-32981333D01*
X260562000Y-32981333D02*
X260528666Y-32948000D01*
X260462000Y-32914666D01*
X260295333Y-32914666D01*
X260228666Y-32948000D01*
X260195333Y-32981333D01*
X260162000Y-33048000D01*
X260162000Y-33114666D01*
X260195333Y-33214666D01*
X260595333Y-33614666D01*
X260162000Y-33614666D01*
%TO.C,C1*%
X260713000Y-28245285D02*
X260741571Y-28273857D01*
X260827285Y-28302428D01*
X260884428Y-28302428D01*
X260970142Y-28273857D01*
X261027285Y-28216714D01*
X261055857Y-28159571D01*
X261084428Y-28045285D01*
X261084428Y-27959571D01*
X261055857Y-27845285D01*
X261027285Y-27788142D01*
X260970142Y-27731000D01*
X260884428Y-27702428D01*
X260827285Y-27702428D01*
X260741571Y-27731000D01*
X260713000Y-27759571D01*
X260141571Y-28302428D02*
X260484428Y-28302428D01*
X260313000Y-28302428D02*
X260313000Y-27702428D01*
X260370142Y-27788142D01*
X260427285Y-27845285D01*
X260484428Y-27873857D01*
%TD*%
M02*
