%TF.GenerationSoftware,KiCad,Pcbnew,(5.1.7)-1*%
%TF.CreationDate,2021-07-14T13:30:58-05:00*%
%TF.ProjectId,PwmRgbLaserDriver Rev. B,50776d52-6762-44c6-9173-657244726976,rev?*%
%TF.SameCoordinates,Original*%
%TF.FileFunction,Soldermask,Top*%
%TF.FilePolarity,Negative*%
%FSLAX46Y46*%
G04 Gerber Fmt 4.6, Leading zero omitted, Abs format (unit mm)*
G04 Created by KiCad (PCBNEW (5.1.7)-1) date 2021-07-14 13:30:58*
%MOMM*%
%LPD*%
G01*
G04 APERTURE LIST*
%ADD10O,1.700000X1.700000*%
%ADD11R,1.700000X1.700000*%
%ADD12O,1.800000X1.400000*%
%ADD13C,0.100000*%
%ADD14R,0.900000X2.300000*%
%ADD15R,2.290000X2.290000*%
%ADD16R,1.525000X0.650000*%
%ADD17C,6.500000*%
%ADD18C,0.600000*%
G04 APERTURE END LIST*
D10*
%TO.C,J6*%
X210094000Y-46502000D03*
D11*
X210094000Y-49042000D03*
%TD*%
D10*
%TO.C,J4*%
X209917000Y-38449000D03*
D11*
X209917000Y-40989000D03*
%TD*%
D10*
%TO.C,J1*%
X209931000Y-32512000D03*
D11*
X209931000Y-29972000D03*
%TD*%
D10*
%TO.C,J7*%
X267514000Y-49450000D03*
D11*
X264974000Y-49450000D03*
%TD*%
D10*
%TO.C,J5*%
X267487000Y-44743000D03*
D11*
X264947000Y-44743000D03*
%TD*%
D10*
%TO.C,J3*%
X267487000Y-40198000D03*
D11*
X264947000Y-40198000D03*
%TD*%
%TO.C,J2*%
X267462000Y-34290000D03*
D10*
X264922000Y-34290000D03*
%TD*%
D12*
%TO.C,RV1*%
X210324000Y-53425000D03*
X215324000Y-53425000D03*
X220324000Y-53425000D03*
X220324000Y-59425000D03*
X215324000Y-59425000D03*
X210324000Y-59425000D03*
%TD*%
%TO.C,RV2*%
X229377000Y-53399000D03*
X234377000Y-53399000D03*
X239377000Y-53399000D03*
X239377000Y-59399000D03*
X234377000Y-59399000D03*
X229377000Y-59399000D03*
%TD*%
%TO.C,RV3*%
X248456000Y-53398000D03*
X253456000Y-53398000D03*
X258456000Y-53398000D03*
X258456000Y-59398000D03*
X253456000Y-59398000D03*
X248456000Y-59398000D03*
%TD*%
%TO.C,R13*%
G36*
G01*
X213473000Y-49055000D02*
X213473000Y-48735000D01*
G75*
G02*
X213633000Y-48575000I160000J0D01*
G01*
X214028000Y-48575000D01*
G75*
G02*
X214188000Y-48735000I0J-160000D01*
G01*
X214188000Y-49055000D01*
G75*
G02*
X214028000Y-49215000I-160000J0D01*
G01*
X213633000Y-49215000D01*
G75*
G02*
X213473000Y-49055000I0J160000D01*
G01*
G37*
G36*
G01*
X212278000Y-49055000D02*
X212278000Y-48735000D01*
G75*
G02*
X212438000Y-48575000I160000J0D01*
G01*
X212833000Y-48575000D01*
G75*
G02*
X212993000Y-48735000I0J-160000D01*
G01*
X212993000Y-49055000D01*
G75*
G02*
X212833000Y-49215000I-160000J0D01*
G01*
X212438000Y-49215000D01*
G75*
G02*
X212278000Y-49055000I0J160000D01*
G01*
G37*
%TD*%
%TO.C,R12*%
G36*
G01*
X213473000Y-47785000D02*
X213473000Y-47465000D01*
G75*
G02*
X213633000Y-47305000I160000J0D01*
G01*
X214028000Y-47305000D01*
G75*
G02*
X214188000Y-47465000I0J-160000D01*
G01*
X214188000Y-47785000D01*
G75*
G02*
X214028000Y-47945000I-160000J0D01*
G01*
X213633000Y-47945000D01*
G75*
G02*
X213473000Y-47785000I0J160000D01*
G01*
G37*
G36*
G01*
X212278000Y-47785000D02*
X212278000Y-47465000D01*
G75*
G02*
X212438000Y-47305000I160000J0D01*
G01*
X212833000Y-47305000D01*
G75*
G02*
X212993000Y-47465000I0J-160000D01*
G01*
X212993000Y-47785000D01*
G75*
G02*
X212833000Y-47945000I-160000J0D01*
G01*
X212438000Y-47945000D01*
G75*
G02*
X212278000Y-47785000I0J160000D01*
G01*
G37*
%TD*%
%TO.C,R10*%
G36*
G01*
X213219000Y-40673000D02*
X213219000Y-40353000D01*
G75*
G02*
X213379000Y-40193000I160000J0D01*
G01*
X213774000Y-40193000D01*
G75*
G02*
X213934000Y-40353000I0J-160000D01*
G01*
X213934000Y-40673000D01*
G75*
G02*
X213774000Y-40833000I-160000J0D01*
G01*
X213379000Y-40833000D01*
G75*
G02*
X213219000Y-40673000I0J160000D01*
G01*
G37*
G36*
G01*
X212024000Y-40673000D02*
X212024000Y-40353000D01*
G75*
G02*
X212184000Y-40193000I160000J0D01*
G01*
X212579000Y-40193000D01*
G75*
G02*
X212739000Y-40353000I0J-160000D01*
G01*
X212739000Y-40673000D01*
G75*
G02*
X212579000Y-40833000I-160000J0D01*
G01*
X212184000Y-40833000D01*
G75*
G02*
X212024000Y-40673000I0J160000D01*
G01*
G37*
%TD*%
%TO.C,R9*%
G36*
G01*
X213219000Y-39403000D02*
X213219000Y-39083000D01*
G75*
G02*
X213379000Y-38923000I160000J0D01*
G01*
X213774000Y-38923000D01*
G75*
G02*
X213934000Y-39083000I0J-160000D01*
G01*
X213934000Y-39403000D01*
G75*
G02*
X213774000Y-39563000I-160000J0D01*
G01*
X213379000Y-39563000D01*
G75*
G02*
X213219000Y-39403000I0J160000D01*
G01*
G37*
G36*
G01*
X212024000Y-39403000D02*
X212024000Y-39083000D01*
G75*
G02*
X212184000Y-38923000I160000J0D01*
G01*
X212579000Y-38923000D01*
G75*
G02*
X212739000Y-39083000I0J-160000D01*
G01*
X212739000Y-39403000D01*
G75*
G02*
X212579000Y-39563000I-160000J0D01*
G01*
X212184000Y-39563000D01*
G75*
G02*
X212024000Y-39403000I0J160000D01*
G01*
G37*
%TD*%
D13*
%TO.C,Q3*%
G36*
X227688500Y-43563000D02*
G01*
X227688500Y-47688000D01*
X227272000Y-47688000D01*
X227272000Y-50163000D01*
X226372000Y-50163000D01*
X226372000Y-47688000D01*
X225955500Y-47688000D01*
X225955500Y-43563000D01*
X227688500Y-43563000D01*
G37*
D14*
X228322000Y-49013000D03*
X225322000Y-49013000D03*
%TD*%
D13*
%TO.C,Q2*%
G36*
X227434500Y-35054000D02*
G01*
X227434500Y-39179000D01*
X227018000Y-39179000D01*
X227018000Y-41654000D01*
X226118000Y-41654000D01*
X226118000Y-39179000D01*
X225701500Y-39179000D01*
X225701500Y-35054000D01*
X227434500Y-35054000D01*
G37*
D14*
X228068000Y-40504000D03*
X225068000Y-40504000D03*
%TD*%
D15*
%TO.C,IC3*%
X218313000Y-48260000D03*
D16*
X221025000Y-46355000D03*
X221025000Y-47625000D03*
X221025000Y-48895000D03*
X221025000Y-50165000D03*
X215601000Y-50165000D03*
X215601000Y-48895000D03*
X215601000Y-47625000D03*
X215601000Y-46355000D03*
%TD*%
D15*
%TO.C,IC2*%
X218059000Y-39878000D03*
D16*
X220771000Y-37973000D03*
X220771000Y-39243000D03*
X220771000Y-40513000D03*
X220771000Y-41783000D03*
X215347000Y-41783000D03*
X215347000Y-40513000D03*
X215347000Y-39243000D03*
X215347000Y-37973000D03*
%TD*%
D17*
%TO.C,H2*%
X265879000Y-57172000D03*
D18*
X265902000Y-54651000D03*
X265902000Y-59803000D03*
X263264000Y-57195000D03*
X268478000Y-57211000D03*
X268307000Y-56212000D03*
X266964000Y-59475000D03*
X263529000Y-58179000D03*
X264872000Y-54885000D03*
X264045000Y-55369000D03*
X264091000Y-58944000D03*
X267838000Y-58803000D03*
X267854000Y-55416000D03*
X267011000Y-54838000D03*
X268260000Y-58085000D03*
X264950000Y-59537000D03*
X263467000Y-56212000D03*
%TD*%
%TO.C,H1*%
X208467000Y-22212000D03*
X209950000Y-25537000D03*
X213260000Y-24085000D03*
X212011000Y-20838000D03*
X212854000Y-21416000D03*
X212838000Y-24803000D03*
X209091000Y-24944000D03*
X209045000Y-21369000D03*
X209872000Y-20885000D03*
X208529000Y-24179000D03*
X211964000Y-25475000D03*
X213307000Y-22212000D03*
X213478000Y-23211000D03*
X208264000Y-23195000D03*
X210902000Y-25803000D03*
X210902000Y-20651000D03*
D17*
X210879000Y-23172000D03*
%TD*%
%TO.C,C17*%
G36*
G01*
X220500000Y-44123000D02*
X220190000Y-44123000D01*
G75*
G02*
X220035000Y-43968000I0J155000D01*
G01*
X220035000Y-43543000D01*
G75*
G02*
X220190000Y-43388000I155000J0D01*
G01*
X220500000Y-43388000D01*
G75*
G02*
X220655000Y-43543000I0J-155000D01*
G01*
X220655000Y-43968000D01*
G75*
G02*
X220500000Y-44123000I-155000J0D01*
G01*
G37*
G36*
G01*
X220500000Y-45258000D02*
X220190000Y-45258000D01*
G75*
G02*
X220035000Y-45103000I0J155000D01*
G01*
X220035000Y-44678000D01*
G75*
G02*
X220190000Y-44523000I155000J0D01*
G01*
X220500000Y-44523000D01*
G75*
G02*
X220655000Y-44678000I0J-155000D01*
G01*
X220655000Y-45103000D01*
G75*
G02*
X220500000Y-45258000I-155000J0D01*
G01*
G37*
%TD*%
%TO.C,C16*%
G36*
G01*
X221643000Y-44123000D02*
X221333000Y-44123000D01*
G75*
G02*
X221178000Y-43968000I0J155000D01*
G01*
X221178000Y-43543000D01*
G75*
G02*
X221333000Y-43388000I155000J0D01*
G01*
X221643000Y-43388000D01*
G75*
G02*
X221798000Y-43543000I0J-155000D01*
G01*
X221798000Y-43968000D01*
G75*
G02*
X221643000Y-44123000I-155000J0D01*
G01*
G37*
G36*
G01*
X221643000Y-45258000D02*
X221333000Y-45258000D01*
G75*
G02*
X221178000Y-45103000I0J155000D01*
G01*
X221178000Y-44678000D01*
G75*
G02*
X221333000Y-44523000I155000J0D01*
G01*
X221643000Y-44523000D01*
G75*
G02*
X221798000Y-44678000I0J-155000D01*
G01*
X221798000Y-45103000D01*
G75*
G02*
X221643000Y-45258000I-155000J0D01*
G01*
G37*
%TD*%
%TO.C,C15*%
G36*
G01*
X223614000Y-43873000D02*
X222664000Y-43873000D01*
G75*
G02*
X222414000Y-43623000I0J250000D01*
G01*
X222414000Y-42948000D01*
G75*
G02*
X222664000Y-42698000I250000J0D01*
G01*
X223614000Y-42698000D01*
G75*
G02*
X223864000Y-42948000I0J-250000D01*
G01*
X223864000Y-43623000D01*
G75*
G02*
X223614000Y-43873000I-250000J0D01*
G01*
G37*
G36*
G01*
X223614000Y-45948000D02*
X222664000Y-45948000D01*
G75*
G02*
X222414000Y-45698000I0J250000D01*
G01*
X222414000Y-45023000D01*
G75*
G02*
X222664000Y-44773000I250000J0D01*
G01*
X223614000Y-44773000D01*
G75*
G02*
X223864000Y-45023000I0J-250000D01*
G01*
X223864000Y-45698000D01*
G75*
G02*
X223614000Y-45948000I-250000J0D01*
G01*
G37*
%TD*%
%TO.C,C14*%
G36*
G01*
X219738000Y-35614000D02*
X219428000Y-35614000D01*
G75*
G02*
X219273000Y-35459000I0J155000D01*
G01*
X219273000Y-35034000D01*
G75*
G02*
X219428000Y-34879000I155000J0D01*
G01*
X219738000Y-34879000D01*
G75*
G02*
X219893000Y-35034000I0J-155000D01*
G01*
X219893000Y-35459000D01*
G75*
G02*
X219738000Y-35614000I-155000J0D01*
G01*
G37*
G36*
G01*
X219738000Y-36749000D02*
X219428000Y-36749000D01*
G75*
G02*
X219273000Y-36594000I0J155000D01*
G01*
X219273000Y-36169000D01*
G75*
G02*
X219428000Y-36014000I155000J0D01*
G01*
X219738000Y-36014000D01*
G75*
G02*
X219893000Y-36169000I0J-155000D01*
G01*
X219893000Y-36594000D01*
G75*
G02*
X219738000Y-36749000I-155000J0D01*
G01*
G37*
%TD*%
%TO.C,C13*%
G36*
G01*
X221389000Y-35614000D02*
X221079000Y-35614000D01*
G75*
G02*
X220924000Y-35459000I0J155000D01*
G01*
X220924000Y-35034000D01*
G75*
G02*
X221079000Y-34879000I155000J0D01*
G01*
X221389000Y-34879000D01*
G75*
G02*
X221544000Y-35034000I0J-155000D01*
G01*
X221544000Y-35459000D01*
G75*
G02*
X221389000Y-35614000I-155000J0D01*
G01*
G37*
G36*
G01*
X221389000Y-36749000D02*
X221079000Y-36749000D01*
G75*
G02*
X220924000Y-36594000I0J155000D01*
G01*
X220924000Y-36169000D01*
G75*
G02*
X221079000Y-36014000I155000J0D01*
G01*
X221389000Y-36014000D01*
G75*
G02*
X221544000Y-36169000I0J-155000D01*
G01*
X221544000Y-36594000D01*
G75*
G02*
X221389000Y-36749000I-155000J0D01*
G01*
G37*
%TD*%
%TO.C,C12*%
G36*
G01*
X223360000Y-35364000D02*
X222410000Y-35364000D01*
G75*
G02*
X222160000Y-35114000I0J250000D01*
G01*
X222160000Y-34439000D01*
G75*
G02*
X222410000Y-34189000I250000J0D01*
G01*
X223360000Y-34189000D01*
G75*
G02*
X223610000Y-34439000I0J-250000D01*
G01*
X223610000Y-35114000D01*
G75*
G02*
X223360000Y-35364000I-250000J0D01*
G01*
G37*
G36*
G01*
X223360000Y-37439000D02*
X222410000Y-37439000D01*
G75*
G02*
X222160000Y-37189000I0J250000D01*
G01*
X222160000Y-36514000D01*
G75*
G02*
X222410000Y-36264000I250000J0D01*
G01*
X223360000Y-36264000D01*
G75*
G02*
X223610000Y-36514000I0J-250000D01*
G01*
X223610000Y-37189000D01*
G75*
G02*
X223360000Y-37439000I-250000J0D01*
G01*
G37*
%TD*%
M02*
