M48
; DRILL file {KiCad (5.1.7)-1} date 07/14/21 13:31:07
; FORMAT={-:-/ absolute / inch / decimal}
; #@! TF.CreationDate,2021-07-14T13:31:07-05:00
; #@! TF.GenerationSoftware,Kicad,Pcbnew,(5.1.7)-1
FMAT,2
INCH
T1C0.0079
T2C0.0118
T3C0.0315
T4C0.0394
T5C0.1575
%
G90
G05
T1
X8.1796Y-2.1616
X8.18Y-2.235
X8.195Y-2.315
X8.195Y-2.37
X8.21Y-1.07
X8.2196Y-2.1966
X8.2204Y-2.2734
X8.24Y-1.7
X8.2404Y-2.035
X8.245Y-1.38
X8.245Y-1.45
X8.255Y-2.235
X8.26Y-2.16
X8.275Y-2.0
X8.2754Y-1.735
X8.28Y-1.3396
X8.28Y-1.4146
X8.29Y-1.07
X8.29Y-2.2734
X8.3Y-2.195
X8.31Y-1.7
X8.3104Y-2.035
X8.34Y-2.16
X8.34Y-2.23
X8.345Y-1.965
X8.3504Y-1.735
X8.37Y-1.07
X8.3754Y-2.195
X8.3754Y-2.2684
X8.4085Y-1.6598
X8.41Y-0.78
X8.41Y-1.03
X8.41Y-1.48
X8.415Y-2.16
X8.415Y-2.23
X8.431Y-1.6756
X8.4333Y-1.4619
X8.45Y-0.82
X8.45Y-0.99
X8.45Y-1.07
X8.4504Y-2.195
X8.4504Y-2.2684
X8.4637Y-1.3919
X8.485Y-2.16
X8.485Y-2.23
X8.49Y-0.78
X8.49Y-0.86
X8.49Y-0.95
X8.49Y-1.03
X8.5037Y-1.3519
X8.5037Y-1.4319
X8.5204Y-2.195
X8.5204Y-2.2684
X8.53Y-0.82
X8.53Y-0.9
X8.53Y-0.99
X8.53Y-1.07
X8.5433Y-1.532
X8.5433Y-1.572
X8.5433Y-1.612
X8.5456Y-1.3919
X8.55Y-1.13
X8.55Y-1.17
X8.55Y-1.21
X8.55Y-1.25
X8.5541Y-1.8739
X8.5544Y-1.9122
X8.5546Y-1.9466
X8.5546Y-1.9866
X8.555Y-2.09
X8.555Y-2.16
X8.555Y-2.23
X8.5554Y-2.3034
X8.5554Y-2.3734
X8.57Y-0.78
X8.57Y-0.86
X8.57Y-0.95
X8.57Y-1.03
X8.5833Y-1.532
X8.5833Y-1.572
X8.5833Y-1.612
X8.5856Y-1.3519
X8.5856Y-1.4319
X8.59Y-1.13
X8.59Y-1.17
X8.59Y-1.21
X8.59Y-1.25
X8.59Y-2.055
X8.5904Y-2.125
X8.5904Y-2.195
X8.5904Y-2.2684
X8.5904Y-2.3384
X8.5944Y-1.9122
X8.5946Y-1.9466
X8.5946Y-1.9866
X8.603Y-1.7288
X8.61Y-0.82
X8.61Y-0.9
X8.61Y-0.99
X8.61Y-1.07
X8.613Y-1.3978
X8.6233Y-1.532
X8.6233Y-1.572
X8.6233Y-1.612
X8.6264Y-1.7145
X8.63Y-1.13
X8.63Y-1.17
X8.63Y-1.21
X8.63Y-1.25
X8.63Y-2.16
X8.63Y-2.23
X8.6304Y-2.3034
X8.6304Y-2.3734
X8.6346Y-1.9466
X8.6346Y-1.9866
X8.645Y-1.5
X8.6476Y-1.6891
X8.65Y-0.78
X8.65Y-0.86
X8.65Y-0.95
X8.65Y-1.03
X8.655Y-1.465
X8.677Y-1.4
X8.6891Y-1.6866
X8.69Y-0.82
X8.69Y-0.9
X8.69Y-0.99
X8.69Y-1.07
X8.695Y-1.465
X8.7104Y-2.195
X8.7104Y-2.2684
X8.7254Y-2.3734
X8.7287Y-1.6824
X8.73Y-0.78
X8.73Y-0.86
X8.73Y-0.95
X8.73Y-1.03
X8.73Y-1.11
X8.735Y-1.465
X8.745Y-2.16
X8.745Y-2.23
X8.745Y-2.3034
X8.7517Y-1.6556
X8.755Y-1.5
X8.77Y-0.82
X8.77Y-0.9
X8.77Y-0.99
X8.77Y-1.07
X8.77Y-1.15
X8.77Y-1.83
X8.785Y-2.12
X8.7854Y-2.195
X8.7854Y-2.2684
X8.795Y-1.47
X8.7993Y-1.6563
X8.8004Y-2.3734
X8.8052Y-1.9592
X8.81Y-0.78
X8.81Y-0.86
X8.81Y-0.95
X8.81Y-1.03
X8.81Y-1.11
X8.81Y-1.85
X8.815Y-2.3034
X8.82Y-2.16
X8.82Y-2.23
X8.8223Y-1.395
X8.828Y-1.9827
X8.835Y-1.5
X8.8369Y-1.6844
X8.85Y-0.82
X8.85Y-0.9
X8.85Y-0.99
X8.85Y-1.07
X8.85Y-1.78
X8.85Y-1.815
X8.85Y-1.85
X8.855Y-1.465
X8.8554Y-2.195
X8.8554Y-2.2684
X8.8734Y-2.0913
X8.8754Y-2.3734
X8.895Y-2.23
X8.9Y-0.8
X8.9Y-0.88
X8.9Y-0.96
X8.9Y-1.04
X8.9Y-1.12
X8.9104Y-2.3384
X8.9134Y-2.1313
X8.92Y-1.25
X8.92Y-1.3
X8.92Y-1.365
X8.92Y-1.405
X8.92Y-1.48
X8.92Y-1.535
X8.92Y-1.67
X8.92Y-1.71
X8.92Y-1.745
X8.925Y-1.82
X8.925Y-1.87
X8.9354Y-2.3034
X8.9454Y-2.3734
X8.9534Y-2.0913
X8.955Y-2.165
X8.98Y-0.8
X8.98Y-0.88
X8.98Y-0.96
X8.98Y-1.04
X8.98Y-2.2
X8.9994Y-2.2736
X9.01Y-2.165
X9.0315Y-1.4993
X9.0315Y-1.5793
X9.0315Y-1.66
X9.04Y-2.2
X9.0422Y-1.9352
X9.06Y-0.8
X9.06Y-0.88
X9.06Y-0.96
X9.06Y-1.04
X9.06Y-1.12
X9.06Y-1.2
X9.06Y-1.28
X9.06Y-1.36
X9.06Y-1.44
X9.065Y-2.165
X9.0665Y-1.5393
X9.0687Y-1.9223
X9.07Y-1.62
X9.0787Y-2.274
X9.095Y-2.2
X9.107Y-1.8727
X9.11Y-1.66
X9.1115Y-1.4993
X9.1115Y-1.5793
X9.115Y-2.165
X9.1341Y-1.8719
X9.14Y-0.8
X9.14Y-0.88
X9.14Y-0.96
X9.14Y-1.04
X9.14Y-1.12
X9.14Y-1.2
X9.14Y-1.28
X9.14Y-1.36
X9.14Y-1.44
X9.1465Y-1.5393
X9.15Y-1.62
X9.15Y-1.7
X9.15Y-2.2
X9.1617Y-2.2522
X9.17Y-2.165
X9.19Y-1.66
X9.19Y-1.74
X9.19Y-1.82
X9.1915Y-1.4993
X9.1915Y-1.5793
X9.205Y-2.2
X9.22Y-0.8
X9.22Y-0.88
X9.22Y-0.96
X9.22Y-1.04
X9.22Y-1.12
X9.22Y-1.2
X9.22Y-1.28
X9.22Y-1.36
X9.22Y-1.44
X9.2265Y-1.5393
X9.2266Y-2.2687
X9.23Y-1.62
X9.23Y-1.7
X9.23Y-1.78
X9.23Y-1.86
X9.23Y-2.03
X9.245Y-2.165
X9.265Y-1.99
X9.2666Y-2.2287
X9.27Y-1.66
X9.27Y-1.74
X9.27Y-1.82
X9.2715Y-1.4993
X9.2715Y-1.5793
X9.3Y-0.8
X9.3Y-0.88
X9.3Y-0.96
X9.3Y-1.04
X9.3Y-1.12
X9.3Y-1.2
X9.3Y-1.28
X9.3Y-1.36
X9.3Y-1.44
X9.3065Y-1.5393
X9.3066Y-2.1887
X9.3066Y-2.2687
X9.31Y-1.62
X9.31Y-1.7
X9.31Y-1.78
X9.31Y-1.86
X9.31Y-2.36
X9.315Y-2.055
X9.3393Y-2.0114
X9.3466Y-2.1487
X9.3466Y-2.2287
X9.35Y-1.66
X9.35Y-1.74
X9.35Y-1.82
X9.35Y-2.31
X9.3615Y-1.4993
X9.3615Y-1.5793
X9.3664Y-2.0107
X9.37Y-2.36
X9.38Y-0.8
X9.38Y-0.88
X9.38Y-0.96
X9.38Y-1.04
X9.38Y-1.12
X9.38Y-1.2
X9.38Y-1.28
X9.38Y-1.36
X9.38Y-1.44
X9.3866Y-2.1887
X9.39Y-1.62
X9.39Y-1.7
X9.39Y-1.78
X9.39Y-1.86
X9.39Y-2.2687
X9.3965Y-1.5393
X9.43Y-1.66
X9.43Y-1.74
X9.43Y-1.82
X9.4415Y-1.4993
X9.4415Y-1.5793
X9.46Y-1.04
X9.46Y-1.12
X9.46Y-1.16
X9.46Y-1.2
X9.46Y-1.24
X9.46Y-1.28
X9.46Y-1.32
X9.46Y-1.36
X9.46Y-1.4
X9.46Y-1.44
X9.46Y-2.16
X9.46Y-2.21
X9.47Y-1.62
X9.47Y-1.7
X9.47Y-1.78
X9.47Y-1.86
X9.47Y-2.29
X9.4765Y-1.5393
X9.49Y-2.12
X9.5Y-2.24
X9.51Y-1.66
X9.51Y-1.74
X9.51Y-1.82
X9.51Y-2.18
X9.5115Y-1.4993
X9.5115Y-1.5793
X9.52Y-0.8
X9.52Y-0.88
X9.52Y-0.96
X9.52Y-2.36
X9.5465Y-1.5393
X9.55Y-1.62
X9.55Y-1.7
X9.55Y-1.78
X9.55Y-1.86
X9.55Y-2.14
X9.55Y-2.32
X9.555Y-1.405
X9.57Y-1.18
X9.57Y-2.2
X9.58Y-1.4993
X9.58Y-2.29
X9.585Y-1.405
X9.59Y-1.66
X9.59Y-1.74
X9.59Y-1.82
X9.59Y-2.36
X9.5915Y-1.5793
X9.6Y-1.18
X9.61Y-2.25
X9.61Y-2.32
X9.615Y-1.405
X9.6265Y-1.5393
X9.63Y-1.18
X9.63Y-1.62
X9.63Y-1.7
X9.63Y-1.78
X9.63Y-1.86
X9.63Y-1.99
X9.645Y-1.405
X9.65Y-2.29
X9.65Y-2.36
X9.66Y-1.18
X9.6615Y-1.5793
X9.67Y-1.66
X9.67Y-1.74
X9.67Y-1.82
X9.67Y-2.03
X9.67Y-2.08
X9.675Y-1.405
X9.69Y-1.18
X9.69Y-2.33
X9.6965Y-1.5393
X9.7Y-1.99
X9.705Y-1.405
X9.71Y-1.62
X9.71Y-1.7
X9.71Y-1.78
X9.71Y-1.78
X9.71Y-1.86
X9.71Y-1.86
X9.71Y-2.06
X9.71Y-2.28
X9.71Y-2.37
X9.72Y-1.18
X9.72Y-2.13
X9.735Y-1.405
X9.74Y-2.03
X9.7415Y-1.5793
X9.75Y-1.66
X9.75Y-1.74
X9.75Y-1.82
X9.75Y-1.82
X9.76Y-2.28
X9.77Y-1.99
X9.7765Y-1.5493
X9.79Y-1.62
X9.79Y-1.7
X9.79Y-1.78
X9.79Y-1.78
X9.79Y-1.86
X9.79Y-1.86
X9.8Y-2.28
X9.81Y-2.03
X9.8215Y-1.5793
X9.83Y-1.66
X9.83Y-1.74
X9.83Y-1.82
X9.84Y-2.28
X9.8565Y-1.5493
X9.86Y-0.79
X9.87Y-1.62
X9.87Y-1.7
X9.87Y-1.78
X9.87Y-1.86
X9.875Y-2.24
X9.9Y-0.79
X9.9015Y-1.5793
X9.91Y-1.66
X9.91Y-1.74
X9.91Y-1.82
X9.915Y-2.275
X9.915Y-1.2757
X9.93Y-1.99
X9.9365Y-1.5493
X9.94Y-0.79
X9.95Y-1.62
X9.95Y-1.7
X9.95Y-1.78
X9.95Y-1.86
X9.96Y-2.24
X9.97Y-2.03
X9.98Y-0.79
X9.9815Y-1.5793
X9.99Y-1.66
X9.99Y-1.74
X9.99Y-1.82
X10.015Y-2.275
X10.0165Y-1.5393
X10.02Y-0.79
X10.02Y-0.83
X10.02Y-0.87
X10.02Y-0.905
X10.02Y-0.94
X10.02Y-0.98
X10.02Y-1.015
X10.02Y-1.05
X10.02Y-1.085
X10.02Y-1.305
X10.02Y-1.41
X10.02Y-1.445
X10.02Y-1.48
X10.02Y-1.99
X10.03Y-1.62
X10.03Y-1.7
X10.04Y-1.78
X10.04Y-1.86
X10.055Y-1.305
X10.055Y-1.34
X10.055Y-1.375
X10.055Y-1.41
X10.055Y-1.445
X10.055Y-1.48
X10.055Y-2.375
X10.06Y-0.79
X10.06Y-0.83
X10.06Y-0.87
X10.06Y-0.905
X10.06Y-0.94
X10.06Y-0.98
X10.06Y-1.015
X10.06Y-1.05
X10.06Y-1.085
X10.06Y-2.235
X10.0615Y-1.5793
X10.07Y-1.66
X10.07Y-1.74
X10.07Y-2.03
X10.07Y-2.085
X10.08Y-1.82
X10.08Y-2.31
X10.09Y-1.305
X10.09Y-1.34
X10.09Y-1.375
X10.09Y-1.41
X10.09Y-1.445
X10.09Y-1.48
X10.0965Y-1.5393
X10.1Y-0.79
X10.1Y-0.83
X10.1Y-0.87
X10.1Y-0.905
X10.1Y-0.94
X10.1Y-0.98
X10.1Y-1.015
X10.1Y-1.05
X10.1Y-1.085
X10.11Y-1.62
X10.11Y-1.7
X10.12Y-1.78
X10.12Y-1.86
X10.12Y-1.99
X10.12Y-2.26
X10.12Y-2.375
X10.125Y-2.195
X10.14Y-0.83
X10.14Y-0.905
X10.14Y-0.98
X10.14Y-1.05
X10.15Y-1.52
X10.15Y-1.58
X10.15Y-1.66
X10.15Y-1.74
X10.15Y-1.82
X10.18Y-0.79
X10.18Y-0.87
X10.18Y-0.94
X10.18Y-1.015
X10.18Y-1.085
X10.19Y-1.62
X10.19Y-1.7
X10.19Y-1.78
X10.2119Y-1.3213
X10.22Y-0.83
X10.22Y-0.905
X10.22Y-0.98
X10.22Y-1.05
X10.23Y-1.58
X10.23Y-1.66
X10.23Y-1.74
X10.235Y-2.075
X10.245Y-2.315
X10.245Y-2.375
X10.25Y-2.14
X10.26Y-0.79
X10.26Y-0.87
X10.26Y-0.94
X10.26Y-1.015
X10.27Y-1.54
X10.27Y-1.62
X10.27Y-1.7
X10.27Y-2.24
X10.28Y-2.04
X10.295Y-2.345
X10.3Y-0.83
X10.3Y-0.905
X10.3Y-0.98
X10.3Y-1.05
X10.3Y-2.095
X10.31Y-1.5
X10.31Y-1.58
X10.31Y-1.66
X10.31Y-2.29
X10.315Y-2.2
X10.32Y-1.79
X10.34Y-0.79
X10.34Y-0.87
X10.34Y-0.94
X10.34Y-1.015
X10.345Y-2.055
X10.345Y-2.375
X10.35Y-1.46
X10.35Y-1.54
X10.35Y-1.62
X10.35Y-1.76
X10.35Y-2.0
X10.375Y-1.895
X10.38Y-0.83
X10.38Y-0.905
X10.38Y-0.98
X10.38Y-1.05
X10.38Y-1.125
X10.38Y-1.2
X10.38Y-1.27
X10.39Y-1.42
X10.39Y-1.5
X10.4Y-2.015
X10.41Y-1.825
X10.42Y-0.79
X10.42Y-0.87
X10.42Y-0.94
X10.42Y-1.015
X10.42Y-1.09
X10.42Y-1.16
X10.42Y-1.235
X10.42Y-1.69
X10.425Y-2.09
X10.43Y-1.46
X10.44Y-1.865
X10.46Y-0.83
X10.46Y-0.905
X10.46Y-0.98
X10.46Y-1.05
X10.46Y-1.125
X10.46Y-1.2
X10.46Y-1.27
X10.46Y-1.5
X10.48Y-1.69
X10.48Y-2.065
X10.49Y-1.89
X10.5Y-0.79
X10.5Y-0.87
X10.5Y-0.94
X10.5Y-1.015
X10.5Y-1.09
X10.5Y-1.16
X10.5Y-1.235
X10.51Y-1.46
X10.515Y-1.5
X10.53Y-2.09
X10.54Y-0.83
X10.54Y-0.905
X10.54Y-0.98
X10.54Y-1.05
X10.54Y-1.125
X10.54Y-1.2
X10.54Y-1.27
X10.54Y-1.69
X10.545Y-1.865
X10.555Y-2.04
X10.565Y-1.5
X10.57Y-1.42
X10.57Y-1.65
X10.57Y-2.125
X10.58Y-0.79
X10.58Y-0.87
X10.58Y-0.94
X10.58Y-1.015
X10.58Y-1.09
X10.58Y-1.16
X10.58Y-1.235
X10.59Y-1.47
X10.595Y-1.82
X10.6Y-1.69
X10.6Y-1.905
X10.6Y-2.0
X10.6Y-2.09
X10.605Y-2.165
T2
X8.1994Y-0.9132
X8.2074Y-0.8745
X8.2098Y-0.9519
X8.2301Y-0.8413
X8.2319Y-0.982
X8.2627Y-0.8222
X8.2657Y-1.0054
X8.3032Y-0.813
X8.3032Y-1.0159
X8.345Y-1.003
X8.3469Y-0.8204
X8.3794Y-0.9765
X8.3801Y-0.8431
X8.3961Y-0.9482
X8.3979Y-0.8745
X8.4046Y-0.9138
X10.3647Y-2.2518
X10.3727Y-2.2131
X10.3752Y-2.2905
X10.3955Y-2.1799
X10.3973Y-2.3206
X10.428Y-2.1608
X10.4311Y-2.344
X10.4686Y-2.1516
X10.4686Y-2.3544
X10.5104Y-2.3415
X10.5122Y-2.159
X10.5448Y-2.3151
X10.5454Y-2.1817
X10.5614Y-2.2868
X10.5633Y-2.2131
X10.57Y-2.2524
T4
X8.2644Y-1.5137
X8.2644Y-1.6137
X8.265Y-1.18
X8.265Y-1.28
X8.2714Y-1.8308
X8.2714Y-1.9308
X10.431Y-1.5826
X10.531Y-1.5826
X10.43Y-1.35
X10.53Y-1.35
X10.431Y-1.7615
X10.531Y-1.7615
X10.432Y-1.9469
X10.532Y-1.9469
T5
X8.3023Y-0.9123
X10.4677Y-2.2509
T3
G00X9.0227Y-2.1023
M15
G01X9.0385Y-2.1023
M16
G05
G00X9.0227Y-2.3385
M15
G01X9.0385Y-2.3385
M16
G05
G00X9.2196Y-2.1023
M15
G01X9.2353Y-2.1023
M16
G05
G00X9.2196Y-2.3385
M15
G01X9.2353Y-2.3385
M16
G05
G00X9.4164Y-2.1023
M15
G01X9.4322Y-2.1023
M16
G05
G00X9.4164Y-2.3385
M15
G01X9.4322Y-2.3385
M16
G05
G00X8.2726Y-2.1033
M15
G01X8.2883Y-2.1033
M16
G05
G00X8.2726Y-2.3396
M15
G01X8.2883Y-2.3396
M16
G05
G00X8.4694Y-2.1033
M15
G01X8.4852Y-2.1033
M16
G05
G00X8.4694Y-2.3396
M15
G01X8.4852Y-2.3396
M16
G05
G00X8.6663Y-2.1033
M15
G01X8.682Y-2.1033
M16
G05
G00X8.6663Y-2.3396
M15
G01X8.682Y-2.3396
M16
G05
G00X9.7739Y-2.1023
M15
G01X9.7896Y-2.1023
M16
G05
G00X9.7739Y-2.3385
M15
G01X9.7896Y-2.3385
M16
G05
G00X9.9707Y-2.1023
M15
G01X9.9865Y-2.1023
M16
G05
G00X9.9707Y-2.3385
M15
G01X9.9865Y-2.3385
M16
G05
G00X10.1676Y-2.1023
M15
G01X10.1833Y-2.1023
M16
G05
G00X10.1676Y-2.3385
M15
G01X10.1833Y-2.3385
M16
G05
T0
M30
